ACLR_SUBJECT03_HOPP01_kinetics.mot
version=1
nRows=15
nColumns=19
inDegrees=yes
endheader
time	ground_force_vx	ground_force_vy	ground_force_vz	ground_force_px	ground_force_py	ground_force_pz	1_ground_force_vx	1_ground_force_vy	1_ground_force_vz	1_ground_force_px	1_ground_force_py	1_ground_force_pz	ground_torque_x	ground_torque_y	ground_torque_z	1_ground_torque_x	1_ground_torque_y	1_ground_torque_z
      1.50000000	    -43.45288849	    650.02978516	     -1.58482277	      1.81812131	      0.00000000	     -0.02465746	      0.00000000	      0.00000000	      0.00000000	      1.57507670	      0.00000000	     -0.26034528	      0.00000000	     -0.71198851	      0.00000000	      0.00000000	      0.00000000	      0.00000000
      1.50041664	    -43.48709106	    649.80444336	     -1.53578138	      1.81824601	      0.00000000	     -0.02467016	      0.00000000	      0.00000000	      0.00000000	      1.57507670	      0.00000000	     -0.26034528	      0.00000000	     -0.69538665	      0.00000000	      0.00000000	      0.00000000	      0.00000000
      1.50083339	    -43.51803589	    649.56707764	     -1.48622525	      1.81837118	      0.00000000	     -0.02468293	      0.00000000	      0.00000000	      0.00000000	      1.57507670	      0.00000000	     -0.26034528	      0.00000000	     -0.67855275	      0.00000000	      0.00000000	      0.00000000	      0.00000000
      1.50125003	    -43.54574966	    649.31756592	     -1.43611407	      1.81849706	      0.00000000	     -0.02469578	      0.00000000	      0.00000000	      0.00000000	      1.57507670	      0.00000000	     -0.26034528	      0.00000000	     -0.66147828	      0.00000000	      0.00000000	      0.00000000	      0.00000000
      1.50166667	    -43.57026291	    649.05572510	     -1.38540757	      1.81862354	      0.00000000	     -0.02470870	      0.00000000	      0.00000000	      0.00000000	      1.57507670	      0.00000000	     -0.26034528	      0.00000000	     -0.64415443	      0.00000000	      0.00000000	      0.00000000	      0.00000000
      1.50208330	    -43.59160995	    648.78161621	     -1.33406460	      1.81875074	      0.00000000	     -0.02472170	      0.00000000	      0.00000000	      0.00000000	      1.57507670	      0.00000000	     -0.26034528	      0.00000000	     -0.62657231	      0.00000000	      0.00000000	      0.00000000	      0.00000000
      1.50250006	    -43.60982513	    648.49499512	     -1.28204417	      1.81887877	      0.00000000	     -0.02473479	      0.00000000	      0.00000000	      0.00000000	      1.57507670	      0.00000000	     -0.26034528	      0.00000000	     -0.60872269	      0.00000000	      0.00000000	      0.00000000	      0.00000000
      1.50291669	    -43.62495422	    648.19580078	     -1.22930491	      1.81900740	      0.00000000	     -0.02474796	      0.00000000	      0.00000000	      0.00000000	      1.57507670	      0.00000000	     -0.26034528	      0.00000000	     -0.59059626	      0.00000000	      0.00000000	      0.00000000	      0.00000000
      1.50333333	    -43.63703918	    647.88403320	     -1.17580485	      1.81913698	      0.00000000	     -0.02476121	      0.00000000	      0.00000000	      0.00000000	      1.57507670	      0.00000000	     -0.26034528	      0.00000000	     -0.57218343	      0.00000000	      0.00000000	      0.00000000	      0.00000000
      1.50374997	    -43.64612198	    647.55957031	     -1.12150216	      1.81926727	      0.00000000	     -0.02477456	      0.00000000	      0.00000000	      0.00000000	      1.57507670	      0.00000000	     -0.26034528	     -0.00000000	     -0.55347443	     -0.00000000	      0.00000000	      0.00000000	      0.00000000
      1.50416672	    -43.65225601	    647.22235107	     -1.06635487	      1.81939852	      0.00000000	     -0.02478799	      0.00000000	      0.00000000	      0.00000000	      1.57507670	      0.00000000	     -0.26034528	      0.00000000	     -0.53445929	      0.00000000	      0.00000000	      0.00000000	      0.00000000
      1.50458336	    -43.65549850	    646.87231445	     -1.01032066	      1.81953061	      0.00000000	     -0.02480152	      0.00000000	      0.00000000	      0.00000000	      1.57507670	      0.00000000	     -0.26034528	      0.00000000	     -0.51512796	      0.00000000	      0.00000000	      0.00000000	      0.00000000
      1.50500000	    -43.65590286	    646.50946045	     -0.95335728	      1.81966364	      0.00000000	     -0.02481514	      0.00000000	      0.00000000	      0.00000000	      1.57507670	      0.00000000	     -0.26034528	      0.00000000	     -0.49547014	      0.00000000	      0.00000000	      0.00000000	      0.00000000
      1.50541663	    -43.65352631	    646.13366699	     -0.89542234	      1.81979775	      0.00000000	     -0.02482886	      0.00000000	      0.00000000	      0.00000000	      1.57507670	      0.00000000	     -0.26034528	      0.00000000	     -0.47547531	      0.00000000	      0.00000000	      0.00000000	      0.00000000
      1.50583339	    -43.64844131	    645.74505615	     -0.83647352	      1.81993282	      0.00000000	     -0.02484268	      0.00000000	      0.00000000	      0.00000000	      1.57507670	      0.00000000	     -0.26034528	     -0.00000000	     -0.45513287	     -0.00000000	      0.00000000	      0.00000000	      0.00000000
